<svg xmlns="http://www.w3.org/2000/svg" fill="none" viewBox="0 0 24 24" id="Stripe--Streamline-Svg-Logos" height="24" width="24"><desc>Stripe Streamline Icon: https://streamlinehq.com</desc><path fill="#635bff" d="M23.75 12.163225c0 -1.671125 -0.80945 -2.989725 -2.356525 -2.989725 -1.553625 0 -2.493625 1.3186 -2.493625 2.97665 0 1.964875 1.109725 2.9571 2.7025 2.9571 0.776825 0 1.364325 -0.17625 1.8082 -0.4243v-1.305575c-0.443875 0.22195 -0.95305 0.359025 -1.5993 0.359025 -0.6332 0 -1.194575 -0.221925 -1.2664 -0.9922h3.1921c0 -0.084875 0.01305 -0.424325 0.01305 -0.580975Zm-3.224725 -0.62015c0 -0.737625 0.450425 -1.04445 0.861675 -1.04445 0.3982 0 0.8225 0.306825 0.8225 1.04445h-1.684175ZM16.38015 9.1735c-0.639725 0 -1.050975 0.300275 -1.27945 0.50915l-0.084875 -0.4047h-1.4361v7.611375l1.63195 -0.345975 0.006525 -1.84735c0.235 0.169725 0.580975 0.41125 1.1554 0.41125 1.168475 0 2.2325 -0.94 2.2325 -3.0093 -0.006525 -1.893075 -1.0836 -2.92445 -2.22595 -2.92445Zm-0.391675 4.497625c-0.38515 0 -0.613625 -0.137075 -0.770275 -0.3068l-0.006525 -2.4218c0.169725 -0.1893 0.404725 -0.319875 0.7768 -0.319875 0.594025 0 1.005275 0.66585 1.005275 1.520975 0 0.874725 -0.404725 1.5275 -1.005275 1.5275ZM11.334175 8.78835l1.638475 -0.3525v-1.325125l-1.638475 0.345975v1.33165Zm0 0.496125h1.638475v5.7118h-1.638475V9.284475Zm-1.755975 0.48305 -0.10445 -0.48305h-1.41v5.7118h1.63195V11.1253c0.385125 -0.50265 1.0379 -0.41125 1.240275 -0.33945v-1.501375c-0.2089 -0.07835 -0.97265 -0.22195 -1.357775 0.48305Zm-3.2639 -1.899575 -1.592775 0.339425 -0.006525 5.22875c0 0.966125 0.724575 1.67765 1.6907 1.67765 0.535275 0 0.92695 -0.097925 1.14235 -0.215425v-1.325125c-0.208875 0.08485 -1.240275 0.385125 -1.240275 -0.580975v-2.317375h1.240275v-1.3904h-1.240275l0.006525 -1.416525ZM1.9015275 10.942525c0 -0.254575 0.20889 -0.3525 0.5548625 -0.3525 0.49611 0 1.122785 0.150125 1.618885 0.417775v-1.534025c-0.5418 -0.215425 -1.077075 -0.300275 -1.618885 -0.300275C1.13125 9.1735 0.25 9.86545 0.25 11.02085c0 1.801675 2.48055 1.51445 2.48055 2.29125 0 0.300275 -0.261105 0.3982 -0.62666 0.3982 -0.5418075 0 -1.23375 -0.22195 -1.782085 -0.522225v1.553625c0.607085 0.2611 1.220695 0.372075 1.782085 0.372075 1.357785 0 2.29126 -0.672375 2.29126 -1.840825 -0.00655 -1.9453 -2.4936225 -1.599325 -2.4936225 -2.330425Z" stroke-width="0.25"></path></svg>