<svg xmlns="http://www.w3.org/2000/svg" fill="none" viewBox="0 0 24 24" id="Youtube--Streamline-Svg-Logos" height="24" width="24"><desc>Youtube Streamline Icon: https://streamlinehq.com</desc><path fill="#ff0000" d="M7.58865 10.1953c-0.0876 -0.3237 -0.34045 -0.576575 -0.66415 -0.664175 -0.58235 -0.1588 -2.926175 -0.1588 -2.926175 -0.1588s-2.343805 0.0048 -2.9261475 0.163625c-0.323705 0.0876 -0.57657 0.34045 -0.6641625 0.66415 -0.17614675 1.03475 -0.244488 2.611425 0.0048125 3.604775 0.087595 0.3237 0.3404575 0.57655 0.6641625 0.66415 0.5823425 0.158825 2.92616 0.158825 2.92616 0.158825s2.343825 0 2.92615 -0.158825c0.3237 -0.0876 0.576575 -0.34045 0.664175 -0.66415 0.185775 -1.0362 0.243025 -2.6119 -0.004825 -3.609575Z" stroke-width="0.25"></path><path fill="#ffffff" d="m3.2522 13.1264 1.94435 -1.1262 -1.94435 -1.126175v2.252375Z" stroke-width="0.25"></path><path fill="#282828" d="M22.7971 10.89805c0.255075 0 0.4476 0.048125 0.58235 0.13955 0.13475 0.09145 0.231025 0.23585 0.288775 0.43315 0.05775 0.197325 0.0818 0.46685 0.0818 0.813375v0.563075h-1.236875v0.173275l0.01925 0.47645c0.01445 0.1059 0.0385 0.1829 0.077 0.231025s0.101075 0.072175 0.1829 0.072175c0.1107 0 0.1877 -0.0433 0.2262 -0.129925 0.0433 -0.086625 0.06255 -0.231025 0.067375 -0.42835l0.6401 0.0385c0.0048 0.028875 0.0048 0.0674 0.0048 0.115525 0 0.3032 -0.0818 0.5294 -0.25025 0.6786 -0.16845 0.149175 -0.399475 0.2262 -0.702675 0.2262 -0.365775 0 -0.62085 -0.115525 -0.765225 -0.341725 -0.144375 -0.2262 -0.221375 -0.582325 -0.221375 -1.0588v-0.58235c0.01635 -0.81815 0.16025 -1.41735 1.00585 -1.41975Zm-8.898775 0.06255v2.4112c0 0.144375 0.014425 0.250275 0.048125 0.312825 0.068325 0.1338 0.24545 0.099625 0.3417 0.0337 0.055575 -0.037575 0.10035 -0.089 0.12995 -0.1492V10.9606h0.73635v3.287125h-0.57755l-0.06255 -0.404275h-0.01445c-0.158825 0.3032 -0.39465 0.457225 -0.707475 0.457225 -0.481475 -0.00125 -0.59925 -0.3481 -0.6273 -0.7004l-0.00185 -0.024875c-0.00365 -0.0539 -0.005375 -0.107725 -0.006125 -0.160275v-2.454525h0.741175Zm3.79725 0v2.4112c0 0.144375 0.01445 0.250275 0.048125 0.312825 0.06835 0.1338 0.24545 0.099625 0.341725 0.0337 0.05555 -0.037575 0.10035 -0.089 0.129925 -0.1492V10.9606h0.73635v3.287125h-0.577525l-0.06255 -0.404275h-0.01445c-0.158825 0.3032 -0.39465 0.457225 -0.707475 0.457225 -0.4815 -0.00125 -0.599275 -0.3481 -0.627325 -0.7004l-0.001825 -0.024875c-0.003675 -0.0539 -0.005375 -0.107725 -0.006125 -0.160275v-2.454525h0.74115Zm-5.934125 -0.06255c0.240625 0 0.43795 0.048125 0.58235 0.1492 0.144375 0.10105 0.255075 0.255075 0.32245 0.466825 0.067375 0.21175 0.101075 0.495725 0.101075 0.84705v0.47645c0 0.35135 -0.0337 0.630475 -0.101075 0.84225 -0.067375 0.21175 -0.173275 0.365775 -0.32245 0.466825 -0.1492 0.09625 -0.35135 0.1492 -0.6016 0.1492 -0.2599 0.004825 -0.462025 -0.048125 -0.611225 -0.144375 -0.1492 -0.101075 -0.255075 -0.255075 -0.31765 -0.46685 -0.06255 -0.21175 -0.091425 -0.4909 -0.091425 -0.842225v-0.476475c0 -0.351325 0.033675 -0.6401 0.105875 -0.85185 0.0722 -0.216575 0.182875 -0.370575 0.3369 -0.466825 0.154 -0.096275 0.351325 -0.1492 0.596775 -0.1492Zm8.345325 -1.3187v1.7326h0.0048c0.0674 -0.12515 0.154025 -0.2262 0.27435 -0.303225 0.11235 -0.075575 0.244775 -0.1158 0.3802 -0.1155 0.178075 0 0.312825 0.048125 0.4139 0.139575 0.101075 0.09625 0.17325 0.24545 0.216575 0.4524 0.04195 0.200475 0.06585 0.47775 0.0673 0.827425l0.000075 0.03405v0.519775c0 0.4861 -0.062575 0.84705 -0.178075 1.078075 -0.120325 0.231 -0.3032 0.346525 -0.553475 0.346525 -0.13955 0 -0.2647 -0.0337 -0.3802 -0.096275 -0.102225 -0.059575 -0.186875 -0.14495 -0.24555 -0.24745l-0.009525 -0.01725h-0.01445l-0.077 0.312825h-0.611225V9.57935h0.7123Zm-2.9454 0.16845v0.596775h-0.73155v3.90315h-0.721925V10.344575h-0.73635v-0.596775h2.189825Zm-7.93625 0 0.0004 0.0018c0.00705 0.0313 0.104375 0.4639 0.211375 0.967875l0.008475 0.03995c0.004225 0.020025 0.008475 0.04015 0.01275 0.06035l0.008525 0.040525 0.004275 0.020325 0.008525 0.04075c0.001425 0.0068 0.00285 0.013625 0.004275 0.020425l0.008525 0.040925 0.0124 0.0598c0.07225 0.349 0.141225 0.699025 0.1825 0.950025h0.01925c0.039575 -0.22515 0.096975 -0.513275 0.158225 -0.807425l0.01605 -0.076825c0.00805 -0.03845 0.01615 -0.076925 0.024275 -0.115275l0.012625 -0.059575c0.117825 -0.554125 0.23505 -1.071825 0.256875 -1.1678l0.0014 -0.0062c0.00145 -0.00635 0.0022 -0.00965 0.0022 -0.00965h0.73635l-0.85185 3.03685v1.45825h-0.726725v-1.45345h-0.004825l-0.842225 -3.04165h0.73635Zm2.521875 1.6604c-0.10105 0 -0.16845 0.052925 -0.21175 0.163625 -0.043325 0.1107 -0.062575 0.27915 -0.062575 0.514975v1.0251c0 0.24065 0.01925 0.418725 0.05775 0.5246 0.0385 0.105875 0.1107 0.158825 0.216575 0.158825 0.101075 0 0.173275 -0.05295 0.216575 -0.158825 0.043325 -0.105875 0.062575 -0.28395 0.062575 -0.5246v-1.0251c0 -0.235825 -0.01925 -0.4091 -0.062575 -0.514975 -0.0433 -0.1107 -0.1155 -0.163625 -0.216575 -0.163625Zm8.489725 0.09625c-0.05865 0.05415 -0.1004 0.120975 -0.125225 0.204475l-0.004725 0.0169v1.867375c0.059675 0.10105 0.144375 0.168425 0.293575 0.17325 0.077 0 0.139575 -0.028875 0.1877 -0.086625 0.048125 -0.05775 0.081825 -0.154025 0.101075 -0.288775 0.018475 -0.129375 0.028075 -0.307525 0.028825 -0.534475l0.00005 -0.028625v-0.428325c0 -0.2599 -0.009625 -0.457225 -0.024075 -0.596775 -0.01925 -0.139575 -0.0433 -0.24065 -0.086625 -0.2984 -0.08375 -0.120325 -0.2647 -0.118875 -0.370575 0Zm2.54595 -0.1107c-0.081825 0.004825 -0.139575 0.028875 -0.173275 0.0722 -0.0385 0.048125 -0.06255 0.120325 -0.077 0.2262 -0.01415 0.10375 -0.01905 0.466375 -0.01925 0.480825l0 0.236275h0.539025l-0.000025 -0.208375 0 0.004025c-0.000275 0.072825 -0.0018 -0.0423 -0.005125 -0.183625l-0.00045 -0.018975c-0.003025 -0.124225 -0.00745 -0.2627 -0.01365 -0.31015 -0.014425 -0.1107 -0.0385 -0.1877 -0.077 -0.231025 -0.0385 -0.0433 -0.09625 -0.067375 -0.17325 -0.067375Z" stroke-width="0.25"></path></svg>