<svg xmlns="http://www.w3.org/2000/svg" fill="none" viewBox="0 0 24 24" id="Logentries--Streamline-Svg-Logos" height="24" width="24"><desc>Logentries Streamline Icon: https://streamlinehq.com</desc><path fill="#f47721" d="M18.815 23.75H5.185C2.4694575 23.75 0.2761225 21.556675 0.2761225 18.8411V5.1589C0.2761225 2.4433325 2.4694575 0.25 5.185 0.25h13.63c2.715575 0 4.9089 2.1933325 4.9089 4.9089v13.6822C23.7239 21.556675 21.530575 23.75 18.815 23.75Z" stroke-width="0.25"></path><path fill="#ffffff" d="M18.867375 6.829975c0.208875 -0.15665 0.47 -0.313325 0.678875 -0.47 -0.10445 -0.36555 -0.313325 -0.678875 -0.522225 -0.992225 -0.2611 0.10445 -0.47 0.261125 -0.7311 0.365575 -0.156675 -0.10445 -0.313325 -0.261125 -0.522225 -0.365575 0.052225 -0.2611 0.10445 -0.574425 0.156675 -0.83555 -0.365575 -0.10445 -0.731125 -0.2611 -1.096675 -0.313325 -0.10445 0.2611 -0.156675 0.522225 -0.2611 0.783325 -0.2089 0 -0.4178 0.052225 -0.57445 0.10445 -0.156675 -0.2089 -0.31335 -0.47 -0.47 -0.6789 -0.36555 0.10445 -0.6789 0.31335 -0.992225 0.57445 0.10445 0.261125 0.208875 0.522225 0.36555 0.78335 -0.156675 0.15665 -0.2611 0.313325 -0.36555 0.47 -0.261125 -0.052225 -0.57445 -0.10445 -0.83555 -0.156675 -0.10445 0.36555 -0.2089 0.7311 -0.31335 1.096675 0.261125 0.104425 0.522225 0.208875 0.78335 0.2611 0 0.2089 0.052225 0.417775 0.052225 0.626675 -0.2089 0.15665 -0.47 0.313325 -0.6789 0.47 0.10445 0.36555 0.313325 0.678875 0.57445 0.992225 0.2611 -0.10445 0.522225 -0.261125 0.783325 -0.365575 0.156675 0.156675 0.313325 0.261125 0.47 0.365575 -0.052225 0.2611 -0.10445 0.574425 -0.156675 0.83555 0.365575 0.15665 0.731125 0.208875 1.096675 0.2611 0.052225 -0.2611 0.156675 -0.522225 0.261125 -0.783325 0.208875 0 0.417775 -0.052225 0.62665 -0.052225 0.156675 0.2089 0.31335 0.47 0.47 0.6789 0.36555 -0.156675 0.6789 -0.31335 0.94 -0.57445 -0.10445 -0.261125 -0.2611 -0.522225 -0.36555 -0.78335 0.10445 -0.15665 0.2611 -0.313325 0.36555 -0.47 0.261125 0.052225 0.57445 0.10445 0.83555 0.156675 0.10445 -0.36555 0.261125 -0.7311 0.31335 -1.096675 -0.261125 -0.0522 -0.522225 -0.15665 -0.78335 -0.2611 0 -0.2089 -0.0522 -0.417775 -0.104425 -0.626675Zm-1.1489 0.731125c0 0.678875 -0.7311 1.148875 -1.357775 0.94 -0.57445 -0.156675 -0.94 -0.83555 -0.7311 -1.41 0.104425 -0.36555 0.417775 -0.57445 0.7311 -0.6789 0.6789 -0.208875 1.41 0.417775 1.357775 1.1489Z" stroke-width="0.25"></path><path fill="#f36d21" d="M16.5696 9.02335c0.86525 0 1.56665 -0.701425 1.56665 -1.566675 0 -0.86525 -0.7014 -1.56665 -1.56665 -1.56665 -0.86525 0 -1.566675 0.7014 -1.566675 1.56665 0 0.86525 0.701425 1.566675 1.566675 1.566675Z" stroke-width="0.25"></path><path fill="#ffffff" d="M11.97395 18.005525c1.253325 -0.052225 2.0889 0.83555 3.081125 1.357775 1.4622 0.783325 2.8722 0.62665 3.968875 -0.6789 0.522225 -0.626675 0.783325 -1.253325 0.783325 -1.932225 0 -0.62665 -0.2611 -1.30555 -0.7311 -1.88 -1.096675 -1.357775 -2.506675 -1.357775 -3.9689 -0.62665 -0.5222 0.2611 -0.9922 0.678875 -1.56665 0.94 -1.357775 0.62665 -2.66335 0.574425 -3.86445 -0.522225 -1.2011 -1.1489 -1.6189 -2.45445 -0.887775 -3.9689 0.2611 -0.522225 0.626675 -1.04445 0.887775 -1.566675 0.83555 -1.514425 0.992225 -3.028875 -0.417775 -4.23 -0.57445 -0.5222 -1.253325 -0.7311 -1.88 -0.7311 -0.626675 0 -1.30555 0.2611 -1.932225 0.7311 -1.462225 1.1489 -1.6189 2.7678 -0.626675 4.1778 1.462225 2.03665 1.6189 3.864425 0.052225 5.9011 -0.992225 1.30555 -0.992225 2.82 0.261125 4.0211 0.62665 0.626675 1.30555 0.8878 1.984425 0.8878 0.6789 0 1.41 -0.261125 2.0889 -0.6789 0.887775 -0.57445 1.6711 -1.30555 2.767775 -1.2011Z" stroke-width="0.25"></path></svg>